{"title":"Smurfs.2.2013 HDcam XVID AC3 BHRG","uid":8848544,"size":1143501700,"categoryP":"video","categoryS":"movies","magnet":"?xt=urn:btih:445abc6d561d5ae754c7b99eba8ee195a15c5dc9&amp;dn=Smurfs.2.2013+HDcam+XVID+AC3+BHRG&amp;tr=udp%3A%2F%2Ftracker.openbittorrent.com%3A80&amp;tr=udp%3A%2F%2Fopen.demonii.com%3A1337&amp;tr=udp%3A%2F%2Ftracker.coppersurfer.tk%3A6969&amp;tr=udp%3A%2F%2Fexodus.desync.com%3A6969","seeders":1,"leechers":0,"uploader":"TeX","files":3,"time":1377462319,"description":"[img]http://lookpic.com/O/i2/608/Gbw7MajL.jpeg[/img]\n\nFormat : AVI\nFormat/Info : Audio Video Interleave\nFile size : 1.06 GiB\nDuration : 1h 34mn\nOverall bit rate : 1 606 Kbps\nWriting application : VirtualDubMod 1.5.10.2 (build 2540/release)\nWriting library : VirtualDubMod build 2540/release\n\nVideo\nID : 0\nFormat : MPEG-4 Visual\nFormat profile : Advanced Simple@L5\nFormat settings, BVOP : 2\nFormat settings, QPel : No\nFormat settings, GMC : No warppoints\nFormat settings, Matrix : Default (H.263)\nMuxing mode : Packed bitstream\nCodec ID : XVID\nCodec ID/Hint : XviD\nDuration : 1h 34mn\nBit rate : 1 404 Kbps\nWidth : 720 pixels\nHeight : 304 pixels\nDisplay aspect ratio : 2.35:1\nFrame rate : 23.976 fps\nColor space : YUV\nChroma subsampling : 4:2:0\nBit depth : 8 bits\nScan type : Progressive\nCompression mode : Lossy\nBits/(Pixel*Frame) : 0.268\nStream size : 945 MiB (87%)\nWriting library : XviD 1.2.1 (UTC 2008-12-04)\n\nAudio\nID : 1\nFormat : AC-3\nFormat/Info : Audio Coding 3\nMode extension : CM (complete main)\nFormat settings, Endianness : Big\nCodec ID : 2000\nDuration : 1h 34mn\nBit rate mode : Constant\nBit rate : 192 Kbps\nChannel(s) : 2 channels\nChannel positions : Front: L R\nSampling rate : 44.1 KHz\nBit depth : 16 bits\nCompression mode : Lossy\nDelay relative to video : 14ms\nStream size : 129 MiB (12%)\n\n[img]http://lookpic.com/O/i2/135/0956ehD.png[/img]\n[img]http://lookpic.com/O/i2/1186/SLcdwRgo.png[/img]","torrent":{"xt":"urn:btih:445abc6d561d5ae754c7b99eba8ee195a15c5dc9","amp;dn":"Smurfs.2.2013+HDcam+XVID+AC3+BHRG","amp;tr":["udp%3A%2F%2Ftracker.openbittorrent.com%3A80","udp%3A%2F%2Fopen.demonii.com%3A1337","udp%3A%2F%2Ftracker.coppersurfer.tk%3A6969","udp%3A%2F%2Fexodus.desync.com%3A6969"],"infoHash":"445abc6d561d5ae754c7b99eba8ee195a15c5dc9","infoHashBuffer":{"type":"Buffer","data":[68,90,188,109,86,29,90,231,84,199,185,158,186,142,225,149,161,92,93,201]},"announce":[],"urlList":[]}}